<svg width="92" height="92" viewBox="0 0 92 92" fill="none" xmlns="http://www.w3.org/2000/svg">
<rect width="92" height="92" fill="white"/>
<path d="M18 49.5C74 72 87.6 57.1 80 45.5C83 52.3333 75 64.5 18 49.5Z" fill="#232323"/>
<path d="M11.6136 39.8027C11.6136 40.2816 11.7345 40.6723 11.9762 40.9748C12.218 41.2773 12.5383 41.5294 12.9371 41.7311C13.3481 41.9202 13.7953 42.0903 14.2788 42.2416C14.7623 42.3928 15.2457 42.563 15.7292 42.752C16.2127 42.9285 16.6539 43.1554 17.0527 43.4327C17.4516 43.6973 17.7719 44.0503 18.0136 44.4914C18.2675 44.9199 18.3944 45.4619 18.3944 46.1173C18.3944 46.9996 18.1768 47.7244 17.7417 48.2916C17.3186 48.8587 16.7506 49.281 16.0374 49.5583C15.3243 49.823 14.5447 49.9553 13.6986 49.9553C13.0943 49.9553 12.4778 49.8923 11.8493 49.7663C11.2208 49.6276 10.6043 49.4259 10 49.1613L10.1088 46.0606H10.9972L11.3054 48.4806L11.1241 48.1592C11.5471 48.3609 11.9883 48.5121 12.4476 48.613C12.9069 48.7138 13.3541 48.7642 13.7893 48.7642C14.3573 48.7642 14.8771 48.676 15.3485 48.4995C15.8199 48.3105 16.2006 48.0395 16.4907 47.6866C16.7808 47.321 16.9258 46.8673 16.9258 46.3253C16.9258 45.8211 16.7989 45.4178 16.5451 45.1153C16.3033 44.8002 15.983 44.5418 15.5842 44.3402C15.1853 44.1385 14.7441 43.962 14.2606 43.8108C13.7772 43.6595 13.2937 43.502 12.8102 43.3381C12.3267 43.1617 11.8856 42.9411 11.4867 42.6764C11.0878 42.4117 10.7615 42.0714 10.5077 41.6555C10.2659 41.2269 10.145 40.6849 10.145 40.0295C10.145 39.2229 10.3324 38.5548 10.7071 38.0255C11.0939 37.4835 11.6136 37.0802 12.2663 36.8155C12.9311 36.5508 13.6684 36.4184 14.4782 36.4184C15.0463 36.4184 15.6386 36.4815 16.255 36.6075C16.8714 36.7335 17.4758 36.9289 18.068 37.1936L17.923 40.1619H17.0165L16.7445 37.8931L16.9621 38.12C16.5995 37.9561 16.2066 37.8301 15.7836 37.7419C15.3606 37.6536 14.9375 37.6095 14.5145 37.6095C14.0189 37.6095 13.5475 37.6852 13.1003 37.8364C12.6531 37.9751 12.2905 38.2082 12.0125 38.5359C11.7466 38.851 11.6136 39.2733 11.6136 39.8027Z" fill="#232323"/>
<path d="M23.2699 49.9553C22.6414 49.9553 22.1458 49.7536 21.7832 49.3503C21.4206 48.9344 21.2393 48.3105 21.2393 47.4786V40.6156L21.475 40.8614H19.6076V40.0295L21.4931 39.7459L21.2393 40.0484V37.5528L22.6897 37.307V40.0484L22.4903 39.8027H25.3368L25.2824 40.8614H22.4903L22.6897 40.6156V47.2706C22.6897 47.8 22.7864 48.1844 22.9798 48.4239C23.1853 48.6634 23.4693 48.7831 23.832 48.7831C24.0495 48.7831 24.2852 48.7453 24.539 48.6697C24.7929 48.5941 25.0648 48.4869 25.3549 48.3483L25.6631 49.218C24.805 49.7095 24.0072 49.9553 23.2699 49.9553Z" fill="#232323"/>
<path d="M30.437 49.9553C29.6271 49.9553 28.9623 49.6969 28.4426 49.1802C27.9229 48.6634 27.663 47.8693 27.663 46.798V40.7669L27.8443 41.0316L26.2488 40.6723V39.8594L29.1134 39.7459V46.5333C29.1134 47.2895 29.2826 47.8504 29.6211 48.2159C29.9595 48.5815 30.4128 48.7642 30.9809 48.7642C31.4281 48.7642 31.9116 48.6382 32.4313 48.3861C32.9631 48.134 33.4829 47.7433 33.9905 47.2139L33.8636 47.5542V40.7291L34.0449 41.0316L32.4494 40.6723V39.8594L35.314 39.727V48.8588L35.0965 48.613L36.7463 48.9344V49.7663L34.1899 49.8797L33.9724 48.008L34.1899 48.0836C33.5856 48.7264 32.9571 49.1991 32.3044 49.5016C31.6517 49.8041 31.0292 49.9553 30.437 49.9553Z" fill="#232323"/>
<path d="M41.6255 49.9553C40.9608 49.9553 40.3564 49.7663 39.8125 49.3881C39.2686 48.9974 38.8395 48.4302 38.5252 47.6866C38.211 46.9303 38.0539 46.0165 38.0539 44.9452C38.0539 43.1932 38.4829 41.8697 39.3411 40.9748C40.1993 40.0799 41.3778 39.6325 42.8765 39.6325C43.1908 39.6325 43.5172 39.6577 43.8556 39.7081C44.2061 39.7585 44.5627 39.8342 44.9253 39.935L44.6352 40.1052V36.305L44.7984 36.513L43.1304 36.1348V35.3219L46.0856 35.1895V48.8588L45.8681 48.5941L47.4998 48.9344V49.7663L44.9615 49.8797L44.744 48.2538L44.9253 48.3294C44.3814 48.8714 43.8314 49.281 43.2754 49.5583C42.7315 49.823 42.1815 49.9553 41.6255 49.9553ZM42.1332 48.802C42.5562 48.802 42.9914 48.6886 43.4386 48.4617C43.8979 48.2222 44.3572 47.8693 44.8165 47.403L44.6352 47.9134V40.748L44.8346 41.1261C44.0973 40.874 43.4265 40.748 42.8222 40.748C41.7585 40.748 40.9487 41.1072 40.3927 41.8256C39.8367 42.5441 39.5587 43.5398 39.5587 44.8128C39.5587 45.6447 39.6675 46.3631 39.885 46.9681C40.1147 47.5605 40.4229 48.0143 40.8097 48.3294C41.2085 48.6445 41.6497 48.802 42.1332 48.802Z" fill="#232323"/>
<path d="M50.4046 50L53.5887 30H66.5122L65.9503 33.4863H57.0818L56.3326 38.252H64.5362L63.9743 41.7383H55.7707L55.0215 46.5137H63.9275L63.3656 50H50.4046Z" fill="#232323"/>
<path d="M70.5602 35L72.3583 40.2441L75.9075 35H80L74.6339 42.5L77.715 50H73.6412L71.6278 44.8145L68.0129 50H63.8924L69.3615 42.5L66.4396 35H70.5602Z" fill="#232323"/>
</svg>
